<svg xmlns:xlink="http://www.w3.org/1999/xlink" xmlns="http://www.w3.org/2000/svg" x="0px" y="0px" width="87" height="87" viewBox="0 0 87 87" enable-background="new 0 0 87 87" xml:space="preserve" style="color: #c19d56;fill: #c19d56">
                    <g fill="#C19D56">
	                    <path fill="#C19D56" d="M43.499,3.779C21.563,3.779,3.78,21.563,3.78,43.5s17.783,39.721,39.719,39.721 c21.938,0,39.721-17.783,39.721-39.721S65.437,3.779,43.499,3.779z M35.668,58.229V29.982l24.126,14.121L35.668,58.229z"></path>
                    </g>
                    <g fill="#C19D56">
	                    <path fill="#C19D56" d="M43.5,87C19.514,87,0,67.486,0,43.5S19.514,0,43.5,0S87,19.514,87,43.5S67.486,87,43.5,87z M43.5,1 C20.065,1,1,20.065,1,43.5S20.065,86,43.5,86S86,66.935,86,43.5S66.935,1,43.5,1z"></path>
                    </g>
                </svg>