<svg xmlns:xlink="http://www.w3.org/1999/xlink" xmlns="http://www.w3.org/2000/svg" x="0px" y="0px" width="19.124" height="19.123" viewBox="13.23 22.365 19.124 19.123" enable-background="new 13.23 22.365 19.124 19.123" xml:space="preserve">
                                <g>
	                                <path fill="#C19D56" d="M16.862,25.997c-1.882,1.882-1.882,4.945,0,6.827l0.707-0.707c-1.492-1.493-1.492-3.921,0-5.413L16.862,25.997z"></path>
	                                <path fill="#C19D56" d="M32.354,40.781l-6.76-6.761c1.114-1.28,1.727-2.896,1.727-4.61c0-1.882-0.733-3.651-2.063-4.982s-3.1-2.063-4.981-2.063c-1.882,0-3.651,0.732-4.982,2.063s-2.063,3.1-2.063,4.982c0,1.882,0.732,3.651,2.063,4.981c1.331,1.331,3.1,2.063,4.982,2.063c1.714,0,3.33-0.613,4.611-1.728l6.76,6.761L32.354,40.781z M16,33.685c-1.142-1.142-1.77-2.659-1.77-4.274c0-1.615,0.628-3.133,1.77-4.275s2.66-1.77,4.275-1.77c1.614,0,3.133,0.628,4.274,1.77s1.771,2.66,1.771,4.275c0,1.615-0.628,3.132-1.77,4.274c-1.142,1.142-2.66,1.771-4.275,1.771S17.142,34.826,16,33.685z"></path>
                                </g>
                            </svg>