<svg xmlns:xlink="http://www.w3.org/1999/xlink" xmlns="http://www.w3.org/2000/svg" x="0px" y="0px" viewBox="0 0 87 87" style="fill: #fff;height: 26px;" width="87"  height="87" >
						<path d="M55.4,81.5c6.1-11.1,5.2-16.1-4.3-24.3c6.1-3.5,9.5-8.5,9.1-15.7c-0.5-8.2-7.7-14.7-16.3-14.6
							c-8.5,0.1-15.6,6.7-15.9,15c-0.3,8.5,5.9,15.8,14.3,16.6c1.4,0.1,2.8,0.2,4.2,0.5c5.9,1.2,10.2,6.7,9.8,12.6
							c-0.4,6.4-5.5,11.4-11.8,11.7C24.9,84.2,5.9,68.5,3.2,49.3C-0.1,26.9,14.4,6.8,36.4,2.8c22.3-4,43.4,10,48.1,32
							c4.3,20-8.6,41.2-28.4,46.7C55.9,81.5,55.6,81.5,55.4,81.5z" fill="#FFFFFF"></path>
					</svg>