<svg xmlns:xlink="http://www.w3.org/1999/xlink" xmlns="http://www.w3.org/2000/svg" x="0px" y="0px" viewBox="0 0 24 24" style="fill: #ee2852; height: 16px;" width="24"  height="24" >
						<circle cx="9" cy="21" r="2" fill="#EE2852"></circle>
						<circle cx="20" cy="21" r="2" fill="#EE2852"></circle>
						<path d="M23.8,5.4C23.6,5.1,23.3,5,23,5H6.8L6,0.8C5.9,0.3,5.5,0,5,0H1C0.4,0,0,0.4,0,1s0.4,1,1,1h3.2L5,6.2c0,0,0,0.1,0,0.1
							l1.7,8.3C7,16,8.2,17,9.6,17c0,0,0,0,0.1,0h9.7c1.5,0,2.7-1,3-2.4L24,6.2C24,5.9,24,5.6,23.8,5.4z" fill="#EE2852"></path>
						</svg>